%
M48
M72
T01C0.02362
T02C0.03543
T03C0.04000
T04C0.05500
T05C0.06299
T06C0.10039
%
T01
X110795Y64451
X78315Y69176
X52331Y76262
X45244Y87483
X26543Y76262
X16504Y94766
X39535Y107561
X39142Y114057
X29693Y118191
X25953Y123113
X33827Y126656
X42882Y127837
X22016Y114057
X15717Y117798
X51937Y107561
X110598Y142010
X132055Y154609
X164732Y161892
X220638Y184136
X256465Y160908
X262764Y166617
X243866Y157758
X248984Y149294
X243866Y136892
X230677Y134924
X248984Y125278
X256071Y125278
X250756Y97719
X220638Y95357
X250756Y69372
X219457Y58939
X232449Y32955
X219457Y14845
X152724Y24294
X284811Y73309
X293669Y64648
X297213Y70357
X299772Y76656
X314142Y76656
X355480Y100869
X339142Y109530
X330480Y115239
X334614Y124884
X329299Y136695
X334614Y144176
X339142Y154609
X360008Y148113
X365913Y155396
X347606Y181183
X334811Y195357
X324378Y193782
X324378Y201853
X311976Y190435
X310205Y179609
X285402Y172719
X281268Y166617
X297016Y167207
X297016Y162286
X313157Y162286
X315323Y154806
X278512Y185514
X357252Y206577
X165126Y124097
X148984Y114648
X157252Y110711
X140323Y116223
X125756Y115042
X125756Y126853
X50953Y158743
X46819Y164648
X38354Y167207
X35008Y172522
X24378Y169766
X20638Y175869
X60205Y176065
X15717Y149884
X122016Y199097
X290913Y46341
X306465Y34333
X299181Y33152
X299181Y19176
X352134Y34333
T02
X168157Y36144
X160126Y36144
X152094Y36144
X144063Y36144
X148079Y46144
X156110Y46144
X164142Y46144
X140047Y46144
X82370Y36144
X74339Y36144
X66307Y36144
X58276Y36144
X62291Y46144
X54260Y46144
X70323Y46144
X78354Y46144
T03
X374299Y166538
X384299Y166538
X384299Y176538
X374299Y176538
X374299Y186538
X384299Y186538
X384299Y196538
X374299Y196538
X374299Y206538
X384299Y206538
X384299Y216538
X374299Y216538
X374299Y226538
X384299Y226538
T04
X157252Y97522
X140323Y97522
T05
X122114Y46144
X100303Y46144
X36327Y46144
X186091Y46144
T06
X39024Y27089
X97606Y27089
X124811Y27089
X183394Y27089
M30
