G75*
%MOIN*%
%OFA0B0*%
%FSLAX25Y25*%
%IPPOS*%
%LPD*%
%AMOC8*
5,1,8,0,0,1.08239X$1,22.5*
%
%ADD10C,0.00000*%
D10*
X0001543Y0005002D02*
X0001543Y0237680D01*
X0395835Y0237876D01*
X0395835Y0005002D01*
X0001543Y0005002D01*
X0034724Y0009294D02*
X0101906Y0009294D01*
X0120512Y0009294D02*
X0187693Y0009294D01*
X0178374Y0027089D02*
X0178376Y0027230D01*
X0178382Y0027372D01*
X0178392Y0027513D01*
X0178406Y0027654D01*
X0178424Y0027794D01*
X0178446Y0027934D01*
X0178471Y0028073D01*
X0178501Y0028211D01*
X0178535Y0028348D01*
X0178572Y0028485D01*
X0178613Y0028620D01*
X0178658Y0028754D01*
X0178707Y0028887D01*
X0178760Y0029018D01*
X0178816Y0029148D01*
X0178876Y0029276D01*
X0178939Y0029403D01*
X0179006Y0029527D01*
X0179076Y0029650D01*
X0179150Y0029770D01*
X0179227Y0029889D01*
X0179308Y0030005D01*
X0179392Y0030119D01*
X0179479Y0030231D01*
X0179569Y0030340D01*
X0179662Y0030446D01*
X0179758Y0030550D01*
X0179857Y0030651D01*
X0179959Y0030749D01*
X0180063Y0030845D01*
X0180170Y0030937D01*
X0180280Y0031026D01*
X0180392Y0031113D01*
X0180507Y0031196D01*
X0180623Y0031275D01*
X0180742Y0031352D01*
X0180864Y0031425D01*
X0180987Y0031494D01*
X0181112Y0031560D01*
X0181239Y0031623D01*
X0181367Y0031682D01*
X0181497Y0031737D01*
X0181629Y0031789D01*
X0181762Y0031836D01*
X0181897Y0031880D01*
X0182032Y0031921D01*
X0182169Y0031957D01*
X0182307Y0031990D01*
X0182445Y0032018D01*
X0182584Y0032043D01*
X0182724Y0032064D01*
X0182865Y0032081D01*
X0183005Y0032094D01*
X0183147Y0032103D01*
X0183288Y0032108D01*
X0183429Y0032109D01*
X0183571Y0032106D01*
X0183712Y0032099D01*
X0183853Y0032088D01*
X0183994Y0032073D01*
X0184134Y0032054D01*
X0184273Y0032031D01*
X0184412Y0032005D01*
X0184550Y0031974D01*
X0184688Y0031939D01*
X0184824Y0031901D01*
X0184959Y0031859D01*
X0185092Y0031813D01*
X0185225Y0031763D01*
X0185356Y0031710D01*
X0185485Y0031653D01*
X0185613Y0031592D01*
X0185739Y0031528D01*
X0185863Y0031460D01*
X0185985Y0031389D01*
X0186105Y0031314D01*
X0186223Y0031236D01*
X0186339Y0031154D01*
X0186452Y0031070D01*
X0186563Y0030982D01*
X0186672Y0030891D01*
X0186777Y0030797D01*
X0186881Y0030701D01*
X0186981Y0030601D01*
X0187078Y0030499D01*
X0187173Y0030393D01*
X0187265Y0030286D01*
X0187353Y0030175D01*
X0187439Y0030063D01*
X0187521Y0029947D01*
X0187600Y0029830D01*
X0187675Y0029710D01*
X0187747Y0029589D01*
X0187816Y0029465D01*
X0187881Y0029340D01*
X0187943Y0029212D01*
X0188001Y0029083D01*
X0188055Y0028953D01*
X0188106Y0028821D01*
X0188153Y0028687D01*
X0188196Y0028553D01*
X0188235Y0028417D01*
X0188271Y0028280D01*
X0188302Y0028142D01*
X0188330Y0028003D01*
X0188354Y0027864D01*
X0188374Y0027724D01*
X0188390Y0027583D01*
X0188402Y0027442D01*
X0188410Y0027301D01*
X0188414Y0027160D01*
X0188414Y0027018D01*
X0188410Y0026877D01*
X0188402Y0026736D01*
X0188390Y0026595D01*
X0188374Y0026454D01*
X0188354Y0026314D01*
X0188330Y0026175D01*
X0188302Y0026036D01*
X0188271Y0025898D01*
X0188235Y0025761D01*
X0188196Y0025625D01*
X0188153Y0025491D01*
X0188106Y0025357D01*
X0188055Y0025225D01*
X0188001Y0025095D01*
X0187943Y0024966D01*
X0187881Y0024838D01*
X0187816Y0024713D01*
X0187747Y0024589D01*
X0187675Y0024468D01*
X0187600Y0024348D01*
X0187521Y0024231D01*
X0187439Y0024115D01*
X0187353Y0024003D01*
X0187265Y0023892D01*
X0187173Y0023785D01*
X0187078Y0023679D01*
X0186981Y0023577D01*
X0186881Y0023477D01*
X0186777Y0023381D01*
X0186672Y0023287D01*
X0186563Y0023196D01*
X0186452Y0023108D01*
X0186339Y0023024D01*
X0186223Y0022942D01*
X0186105Y0022864D01*
X0185985Y0022789D01*
X0185863Y0022718D01*
X0185739Y0022650D01*
X0185613Y0022586D01*
X0185485Y0022525D01*
X0185356Y0022468D01*
X0185225Y0022415D01*
X0185092Y0022365D01*
X0184959Y0022319D01*
X0184824Y0022277D01*
X0184688Y0022239D01*
X0184550Y0022204D01*
X0184412Y0022173D01*
X0184273Y0022147D01*
X0184134Y0022124D01*
X0183994Y0022105D01*
X0183853Y0022090D01*
X0183712Y0022079D01*
X0183571Y0022072D01*
X0183429Y0022069D01*
X0183288Y0022070D01*
X0183147Y0022075D01*
X0183005Y0022084D01*
X0182865Y0022097D01*
X0182724Y0022114D01*
X0182584Y0022135D01*
X0182445Y0022160D01*
X0182307Y0022188D01*
X0182169Y0022221D01*
X0182032Y0022257D01*
X0181897Y0022298D01*
X0181762Y0022342D01*
X0181629Y0022389D01*
X0181497Y0022441D01*
X0181367Y0022496D01*
X0181239Y0022555D01*
X0181112Y0022618D01*
X0180987Y0022684D01*
X0180864Y0022753D01*
X0180742Y0022826D01*
X0180623Y0022903D01*
X0180507Y0022982D01*
X0180392Y0023065D01*
X0180280Y0023152D01*
X0180170Y0023241D01*
X0180063Y0023333D01*
X0179959Y0023429D01*
X0179857Y0023527D01*
X0179758Y0023628D01*
X0179662Y0023732D01*
X0179569Y0023838D01*
X0179479Y0023947D01*
X0179392Y0024059D01*
X0179308Y0024173D01*
X0179227Y0024289D01*
X0179150Y0024408D01*
X0179076Y0024528D01*
X0179006Y0024651D01*
X0178939Y0024775D01*
X0178876Y0024902D01*
X0178816Y0025030D01*
X0178760Y0025160D01*
X0178707Y0025291D01*
X0178658Y0025424D01*
X0178613Y0025558D01*
X0178572Y0025693D01*
X0178535Y0025830D01*
X0178501Y0025967D01*
X0178471Y0026105D01*
X0178446Y0026244D01*
X0178424Y0026384D01*
X0178406Y0026524D01*
X0178392Y0026665D01*
X0178382Y0026806D01*
X0178376Y0026948D01*
X0178374Y0027089D01*
X0119791Y0027089D02*
X0119793Y0027230D01*
X0119799Y0027372D01*
X0119809Y0027513D01*
X0119823Y0027654D01*
X0119841Y0027794D01*
X0119863Y0027934D01*
X0119888Y0028073D01*
X0119918Y0028211D01*
X0119952Y0028348D01*
X0119989Y0028485D01*
X0120030Y0028620D01*
X0120075Y0028754D01*
X0120124Y0028887D01*
X0120177Y0029018D01*
X0120233Y0029148D01*
X0120293Y0029276D01*
X0120356Y0029403D01*
X0120423Y0029527D01*
X0120493Y0029650D01*
X0120567Y0029770D01*
X0120644Y0029889D01*
X0120725Y0030005D01*
X0120809Y0030119D01*
X0120896Y0030231D01*
X0120986Y0030340D01*
X0121079Y0030446D01*
X0121175Y0030550D01*
X0121274Y0030651D01*
X0121376Y0030749D01*
X0121480Y0030845D01*
X0121587Y0030937D01*
X0121697Y0031026D01*
X0121809Y0031113D01*
X0121924Y0031196D01*
X0122040Y0031275D01*
X0122159Y0031352D01*
X0122281Y0031425D01*
X0122404Y0031494D01*
X0122529Y0031560D01*
X0122656Y0031623D01*
X0122784Y0031682D01*
X0122914Y0031737D01*
X0123046Y0031789D01*
X0123179Y0031836D01*
X0123314Y0031880D01*
X0123449Y0031921D01*
X0123586Y0031957D01*
X0123724Y0031990D01*
X0123862Y0032018D01*
X0124001Y0032043D01*
X0124141Y0032064D01*
X0124282Y0032081D01*
X0124422Y0032094D01*
X0124564Y0032103D01*
X0124705Y0032108D01*
X0124846Y0032109D01*
X0124988Y0032106D01*
X0125129Y0032099D01*
X0125270Y0032088D01*
X0125411Y0032073D01*
X0125551Y0032054D01*
X0125690Y0032031D01*
X0125829Y0032005D01*
X0125967Y0031974D01*
X0126105Y0031939D01*
X0126241Y0031901D01*
X0126376Y0031859D01*
X0126509Y0031813D01*
X0126642Y0031763D01*
X0126773Y0031710D01*
X0126902Y0031653D01*
X0127030Y0031592D01*
X0127156Y0031528D01*
X0127280Y0031460D01*
X0127402Y0031389D01*
X0127522Y0031314D01*
X0127640Y0031236D01*
X0127756Y0031154D01*
X0127869Y0031070D01*
X0127980Y0030982D01*
X0128089Y0030891D01*
X0128194Y0030797D01*
X0128298Y0030701D01*
X0128398Y0030601D01*
X0128495Y0030499D01*
X0128590Y0030393D01*
X0128682Y0030286D01*
X0128770Y0030175D01*
X0128856Y0030063D01*
X0128938Y0029947D01*
X0129017Y0029830D01*
X0129092Y0029710D01*
X0129164Y0029589D01*
X0129233Y0029465D01*
X0129298Y0029340D01*
X0129360Y0029212D01*
X0129418Y0029083D01*
X0129472Y0028953D01*
X0129523Y0028821D01*
X0129570Y0028687D01*
X0129613Y0028553D01*
X0129652Y0028417D01*
X0129688Y0028280D01*
X0129719Y0028142D01*
X0129747Y0028003D01*
X0129771Y0027864D01*
X0129791Y0027724D01*
X0129807Y0027583D01*
X0129819Y0027442D01*
X0129827Y0027301D01*
X0129831Y0027160D01*
X0129831Y0027018D01*
X0129827Y0026877D01*
X0129819Y0026736D01*
X0129807Y0026595D01*
X0129791Y0026454D01*
X0129771Y0026314D01*
X0129747Y0026175D01*
X0129719Y0026036D01*
X0129688Y0025898D01*
X0129652Y0025761D01*
X0129613Y0025625D01*
X0129570Y0025491D01*
X0129523Y0025357D01*
X0129472Y0025225D01*
X0129418Y0025095D01*
X0129360Y0024966D01*
X0129298Y0024838D01*
X0129233Y0024713D01*
X0129164Y0024589D01*
X0129092Y0024468D01*
X0129017Y0024348D01*
X0128938Y0024231D01*
X0128856Y0024115D01*
X0128770Y0024003D01*
X0128682Y0023892D01*
X0128590Y0023785D01*
X0128495Y0023679D01*
X0128398Y0023577D01*
X0128298Y0023477D01*
X0128194Y0023381D01*
X0128089Y0023287D01*
X0127980Y0023196D01*
X0127869Y0023108D01*
X0127756Y0023024D01*
X0127640Y0022942D01*
X0127522Y0022864D01*
X0127402Y0022789D01*
X0127280Y0022718D01*
X0127156Y0022650D01*
X0127030Y0022586D01*
X0126902Y0022525D01*
X0126773Y0022468D01*
X0126642Y0022415D01*
X0126509Y0022365D01*
X0126376Y0022319D01*
X0126241Y0022277D01*
X0126105Y0022239D01*
X0125967Y0022204D01*
X0125829Y0022173D01*
X0125690Y0022147D01*
X0125551Y0022124D01*
X0125411Y0022105D01*
X0125270Y0022090D01*
X0125129Y0022079D01*
X0124988Y0022072D01*
X0124846Y0022069D01*
X0124705Y0022070D01*
X0124564Y0022075D01*
X0124422Y0022084D01*
X0124282Y0022097D01*
X0124141Y0022114D01*
X0124001Y0022135D01*
X0123862Y0022160D01*
X0123724Y0022188D01*
X0123586Y0022221D01*
X0123449Y0022257D01*
X0123314Y0022298D01*
X0123179Y0022342D01*
X0123046Y0022389D01*
X0122914Y0022441D01*
X0122784Y0022496D01*
X0122656Y0022555D01*
X0122529Y0022618D01*
X0122404Y0022684D01*
X0122281Y0022753D01*
X0122159Y0022826D01*
X0122040Y0022903D01*
X0121924Y0022982D01*
X0121809Y0023065D01*
X0121697Y0023152D01*
X0121587Y0023241D01*
X0121480Y0023333D01*
X0121376Y0023429D01*
X0121274Y0023527D01*
X0121175Y0023628D01*
X0121079Y0023732D01*
X0120986Y0023838D01*
X0120896Y0023947D01*
X0120809Y0024059D01*
X0120725Y0024173D01*
X0120644Y0024289D01*
X0120567Y0024408D01*
X0120493Y0024528D01*
X0120423Y0024651D01*
X0120356Y0024775D01*
X0120293Y0024902D01*
X0120233Y0025030D01*
X0120177Y0025160D01*
X0120124Y0025291D01*
X0120075Y0025424D01*
X0120030Y0025558D01*
X0119989Y0025693D01*
X0119952Y0025830D01*
X0119918Y0025967D01*
X0119888Y0026105D01*
X0119863Y0026244D01*
X0119841Y0026384D01*
X0119823Y0026524D01*
X0119809Y0026665D01*
X0119799Y0026806D01*
X0119793Y0026948D01*
X0119791Y0027089D01*
X0092586Y0027089D02*
X0092588Y0027230D01*
X0092594Y0027372D01*
X0092604Y0027513D01*
X0092618Y0027654D01*
X0092636Y0027794D01*
X0092658Y0027934D01*
X0092683Y0028073D01*
X0092713Y0028211D01*
X0092747Y0028348D01*
X0092784Y0028485D01*
X0092825Y0028620D01*
X0092870Y0028754D01*
X0092919Y0028887D01*
X0092972Y0029018D01*
X0093028Y0029148D01*
X0093088Y0029276D01*
X0093151Y0029403D01*
X0093218Y0029527D01*
X0093288Y0029650D01*
X0093362Y0029770D01*
X0093439Y0029889D01*
X0093520Y0030005D01*
X0093604Y0030119D01*
X0093691Y0030231D01*
X0093781Y0030340D01*
X0093874Y0030446D01*
X0093970Y0030550D01*
X0094069Y0030651D01*
X0094171Y0030749D01*
X0094275Y0030845D01*
X0094382Y0030937D01*
X0094492Y0031026D01*
X0094604Y0031113D01*
X0094719Y0031196D01*
X0094835Y0031275D01*
X0094954Y0031352D01*
X0095076Y0031425D01*
X0095199Y0031494D01*
X0095324Y0031560D01*
X0095451Y0031623D01*
X0095579Y0031682D01*
X0095709Y0031737D01*
X0095841Y0031789D01*
X0095974Y0031836D01*
X0096109Y0031880D01*
X0096244Y0031921D01*
X0096381Y0031957D01*
X0096519Y0031990D01*
X0096657Y0032018D01*
X0096796Y0032043D01*
X0096936Y0032064D01*
X0097077Y0032081D01*
X0097217Y0032094D01*
X0097359Y0032103D01*
X0097500Y0032108D01*
X0097641Y0032109D01*
X0097783Y0032106D01*
X0097924Y0032099D01*
X0098065Y0032088D01*
X0098206Y0032073D01*
X0098346Y0032054D01*
X0098485Y0032031D01*
X0098624Y0032005D01*
X0098762Y0031974D01*
X0098900Y0031939D01*
X0099036Y0031901D01*
X0099171Y0031859D01*
X0099304Y0031813D01*
X0099437Y0031763D01*
X0099568Y0031710D01*
X0099697Y0031653D01*
X0099825Y0031592D01*
X0099951Y0031528D01*
X0100075Y0031460D01*
X0100197Y0031389D01*
X0100317Y0031314D01*
X0100435Y0031236D01*
X0100551Y0031154D01*
X0100664Y0031070D01*
X0100775Y0030982D01*
X0100884Y0030891D01*
X0100989Y0030797D01*
X0101093Y0030701D01*
X0101193Y0030601D01*
X0101290Y0030499D01*
X0101385Y0030393D01*
X0101477Y0030286D01*
X0101565Y0030175D01*
X0101651Y0030063D01*
X0101733Y0029947D01*
X0101812Y0029830D01*
X0101887Y0029710D01*
X0101959Y0029589D01*
X0102028Y0029465D01*
X0102093Y0029340D01*
X0102155Y0029212D01*
X0102213Y0029083D01*
X0102267Y0028953D01*
X0102318Y0028821D01*
X0102365Y0028687D01*
X0102408Y0028553D01*
X0102447Y0028417D01*
X0102483Y0028280D01*
X0102514Y0028142D01*
X0102542Y0028003D01*
X0102566Y0027864D01*
X0102586Y0027724D01*
X0102602Y0027583D01*
X0102614Y0027442D01*
X0102622Y0027301D01*
X0102626Y0027160D01*
X0102626Y0027018D01*
X0102622Y0026877D01*
X0102614Y0026736D01*
X0102602Y0026595D01*
X0102586Y0026454D01*
X0102566Y0026314D01*
X0102542Y0026175D01*
X0102514Y0026036D01*
X0102483Y0025898D01*
X0102447Y0025761D01*
X0102408Y0025625D01*
X0102365Y0025491D01*
X0102318Y0025357D01*
X0102267Y0025225D01*
X0102213Y0025095D01*
X0102155Y0024966D01*
X0102093Y0024838D01*
X0102028Y0024713D01*
X0101959Y0024589D01*
X0101887Y0024468D01*
X0101812Y0024348D01*
X0101733Y0024231D01*
X0101651Y0024115D01*
X0101565Y0024003D01*
X0101477Y0023892D01*
X0101385Y0023785D01*
X0101290Y0023679D01*
X0101193Y0023577D01*
X0101093Y0023477D01*
X0100989Y0023381D01*
X0100884Y0023287D01*
X0100775Y0023196D01*
X0100664Y0023108D01*
X0100551Y0023024D01*
X0100435Y0022942D01*
X0100317Y0022864D01*
X0100197Y0022789D01*
X0100075Y0022718D01*
X0099951Y0022650D01*
X0099825Y0022586D01*
X0099697Y0022525D01*
X0099568Y0022468D01*
X0099437Y0022415D01*
X0099304Y0022365D01*
X0099171Y0022319D01*
X0099036Y0022277D01*
X0098900Y0022239D01*
X0098762Y0022204D01*
X0098624Y0022173D01*
X0098485Y0022147D01*
X0098346Y0022124D01*
X0098206Y0022105D01*
X0098065Y0022090D01*
X0097924Y0022079D01*
X0097783Y0022072D01*
X0097641Y0022069D01*
X0097500Y0022070D01*
X0097359Y0022075D01*
X0097217Y0022084D01*
X0097077Y0022097D01*
X0096936Y0022114D01*
X0096796Y0022135D01*
X0096657Y0022160D01*
X0096519Y0022188D01*
X0096381Y0022221D01*
X0096244Y0022257D01*
X0096109Y0022298D01*
X0095974Y0022342D01*
X0095841Y0022389D01*
X0095709Y0022441D01*
X0095579Y0022496D01*
X0095451Y0022555D01*
X0095324Y0022618D01*
X0095199Y0022684D01*
X0095076Y0022753D01*
X0094954Y0022826D01*
X0094835Y0022903D01*
X0094719Y0022982D01*
X0094604Y0023065D01*
X0094492Y0023152D01*
X0094382Y0023241D01*
X0094275Y0023333D01*
X0094171Y0023429D01*
X0094069Y0023527D01*
X0093970Y0023628D01*
X0093874Y0023732D01*
X0093781Y0023838D01*
X0093691Y0023947D01*
X0093604Y0024059D01*
X0093520Y0024173D01*
X0093439Y0024289D01*
X0093362Y0024408D01*
X0093288Y0024528D01*
X0093218Y0024651D01*
X0093151Y0024775D01*
X0093088Y0024902D01*
X0093028Y0025030D01*
X0092972Y0025160D01*
X0092919Y0025291D01*
X0092870Y0025424D01*
X0092825Y0025558D01*
X0092784Y0025693D01*
X0092747Y0025830D01*
X0092713Y0025967D01*
X0092683Y0026105D01*
X0092658Y0026244D01*
X0092636Y0026384D01*
X0092618Y0026524D01*
X0092604Y0026665D01*
X0092594Y0026806D01*
X0092588Y0026948D01*
X0092586Y0027089D01*
X0034004Y0027089D02*
X0034006Y0027230D01*
X0034012Y0027372D01*
X0034022Y0027513D01*
X0034036Y0027654D01*
X0034054Y0027794D01*
X0034076Y0027934D01*
X0034101Y0028073D01*
X0034131Y0028211D01*
X0034165Y0028348D01*
X0034202Y0028485D01*
X0034243Y0028620D01*
X0034288Y0028754D01*
X0034337Y0028887D01*
X0034390Y0029018D01*
X0034446Y0029148D01*
X0034506Y0029276D01*
X0034569Y0029403D01*
X0034636Y0029527D01*
X0034706Y0029650D01*
X0034780Y0029770D01*
X0034857Y0029889D01*
X0034938Y0030005D01*
X0035022Y0030119D01*
X0035109Y0030231D01*
X0035199Y0030340D01*
X0035292Y0030446D01*
X0035388Y0030550D01*
X0035487Y0030651D01*
X0035589Y0030749D01*
X0035693Y0030845D01*
X0035800Y0030937D01*
X0035910Y0031026D01*
X0036022Y0031113D01*
X0036137Y0031196D01*
X0036253Y0031275D01*
X0036372Y0031352D01*
X0036494Y0031425D01*
X0036617Y0031494D01*
X0036742Y0031560D01*
X0036869Y0031623D01*
X0036997Y0031682D01*
X0037127Y0031737D01*
X0037259Y0031789D01*
X0037392Y0031836D01*
X0037527Y0031880D01*
X0037662Y0031921D01*
X0037799Y0031957D01*
X0037937Y0031990D01*
X0038075Y0032018D01*
X0038214Y0032043D01*
X0038354Y0032064D01*
X0038495Y0032081D01*
X0038635Y0032094D01*
X0038777Y0032103D01*
X0038918Y0032108D01*
X0039059Y0032109D01*
X0039201Y0032106D01*
X0039342Y0032099D01*
X0039483Y0032088D01*
X0039624Y0032073D01*
X0039764Y0032054D01*
X0039903Y0032031D01*
X0040042Y0032005D01*
X0040180Y0031974D01*
X0040318Y0031939D01*
X0040454Y0031901D01*
X0040589Y0031859D01*
X0040722Y0031813D01*
X0040855Y0031763D01*
X0040986Y0031710D01*
X0041115Y0031653D01*
X0041243Y0031592D01*
X0041369Y0031528D01*
X0041493Y0031460D01*
X0041615Y0031389D01*
X0041735Y0031314D01*
X0041853Y0031236D01*
X0041969Y0031154D01*
X0042082Y0031070D01*
X0042193Y0030982D01*
X0042302Y0030891D01*
X0042407Y0030797D01*
X0042511Y0030701D01*
X0042611Y0030601D01*
X0042708Y0030499D01*
X0042803Y0030393D01*
X0042895Y0030286D01*
X0042983Y0030175D01*
X0043069Y0030063D01*
X0043151Y0029947D01*
X0043230Y0029830D01*
X0043305Y0029710D01*
X0043377Y0029589D01*
X0043446Y0029465D01*
X0043511Y0029340D01*
X0043573Y0029212D01*
X0043631Y0029083D01*
X0043685Y0028953D01*
X0043736Y0028821D01*
X0043783Y0028687D01*
X0043826Y0028553D01*
X0043865Y0028417D01*
X0043901Y0028280D01*
X0043932Y0028142D01*
X0043960Y0028003D01*
X0043984Y0027864D01*
X0044004Y0027724D01*
X0044020Y0027583D01*
X0044032Y0027442D01*
X0044040Y0027301D01*
X0044044Y0027160D01*
X0044044Y0027018D01*
X0044040Y0026877D01*
X0044032Y0026736D01*
X0044020Y0026595D01*
X0044004Y0026454D01*
X0043984Y0026314D01*
X0043960Y0026175D01*
X0043932Y0026036D01*
X0043901Y0025898D01*
X0043865Y0025761D01*
X0043826Y0025625D01*
X0043783Y0025491D01*
X0043736Y0025357D01*
X0043685Y0025225D01*
X0043631Y0025095D01*
X0043573Y0024966D01*
X0043511Y0024838D01*
X0043446Y0024713D01*
X0043377Y0024589D01*
X0043305Y0024468D01*
X0043230Y0024348D01*
X0043151Y0024231D01*
X0043069Y0024115D01*
X0042983Y0024003D01*
X0042895Y0023892D01*
X0042803Y0023785D01*
X0042708Y0023679D01*
X0042611Y0023577D01*
X0042511Y0023477D01*
X0042407Y0023381D01*
X0042302Y0023287D01*
X0042193Y0023196D01*
X0042082Y0023108D01*
X0041969Y0023024D01*
X0041853Y0022942D01*
X0041735Y0022864D01*
X0041615Y0022789D01*
X0041493Y0022718D01*
X0041369Y0022650D01*
X0041243Y0022586D01*
X0041115Y0022525D01*
X0040986Y0022468D01*
X0040855Y0022415D01*
X0040722Y0022365D01*
X0040589Y0022319D01*
X0040454Y0022277D01*
X0040318Y0022239D01*
X0040180Y0022204D01*
X0040042Y0022173D01*
X0039903Y0022147D01*
X0039764Y0022124D01*
X0039624Y0022105D01*
X0039483Y0022090D01*
X0039342Y0022079D01*
X0039201Y0022072D01*
X0039059Y0022069D01*
X0038918Y0022070D01*
X0038777Y0022075D01*
X0038635Y0022084D01*
X0038495Y0022097D01*
X0038354Y0022114D01*
X0038214Y0022135D01*
X0038075Y0022160D01*
X0037937Y0022188D01*
X0037799Y0022221D01*
X0037662Y0022257D01*
X0037527Y0022298D01*
X0037392Y0022342D01*
X0037259Y0022389D01*
X0037127Y0022441D01*
X0036997Y0022496D01*
X0036869Y0022555D01*
X0036742Y0022618D01*
X0036617Y0022684D01*
X0036494Y0022753D01*
X0036372Y0022826D01*
X0036253Y0022903D01*
X0036137Y0022982D01*
X0036022Y0023065D01*
X0035910Y0023152D01*
X0035800Y0023241D01*
X0035693Y0023333D01*
X0035589Y0023429D01*
X0035487Y0023527D01*
X0035388Y0023628D01*
X0035292Y0023732D01*
X0035199Y0023838D01*
X0035109Y0023947D01*
X0035022Y0024059D01*
X0034938Y0024173D01*
X0034857Y0024289D01*
X0034780Y0024408D01*
X0034706Y0024528D01*
X0034636Y0024651D01*
X0034569Y0024775D01*
X0034506Y0024902D01*
X0034446Y0025030D01*
X0034390Y0025160D01*
X0034337Y0025291D01*
X0034288Y0025424D01*
X0034243Y0025558D01*
X0034202Y0025693D01*
X0034165Y0025830D01*
X0034131Y0025967D01*
X0034101Y0026105D01*
X0034076Y0026244D01*
X0034054Y0026384D01*
X0034036Y0026524D01*
X0034022Y0026665D01*
X0034012Y0026806D01*
X0034006Y0026948D01*
X0034004Y0027089D01*
M02*
